<svg xmlns="http://www.w3.org/2000/svg" viewBox="0 0 30 30" fill="none">
    <circle cx="15" cy="15" r="14" fill="#77A007" class="options-button-fill"/>
    <circle cx="15" cy="15" r="14.5" stroke="77A007" class="options-button-stroke" />
    <path fill-rule="evenodd" clip-rule="evenodd" d="M17.547 7.95c-.283-.31-.65-.45-1.104-.45a1.5 1.5 0 0 0-1.103.45c-.312.31-.453.676-.453 1.098 0 .422.141.788.453 1.097.31.31.679.45 1.103.45a1.5 1.5 0 0 0 1.104-.45c.311-.31.453-.675.453-1.097 0-.422-.142-.788-.453-1.098zm-2.632 11.933 2.18-7.514-.652.028-3.594.59-.142.423h.397c.255 0 .424.056.566.169.141.14.198.253.198.422 0 .253-.085.62-.226 1.098l-1.472 5.037c-.113.394-.17.732-.17.985 0 .394.113.732.396.985.283.253.651.394 1.104.394 1.217 0 2.35-.929 3.424-2.786l-.367-.225c-.453.675-.85 1.154-1.16 1.407a.55.55 0 0 1-.369.169c-.056 0-.141-.056-.198-.113-.056-.084-.085-.14-.085-.225 0-.14.057-.422.17-.844z" fill="#fff"/>
</svg>
